<?xml version="1.0" encoding="utf-8"?>
<!-- Generator: Adobe Illustrator 26.5.0, SVG Export Plug-In . SVG Version: 6.00 Build 0)  -->
<svg version="1.1" id="Layer_1" xmlns="http://www.w3.org/2000/svg" xmlns:xlink="http://www.w3.org/1999/xlink" x="0px" y="0px"
	 viewBox="0 0 290 71.8" style="enable-background:new 0 0 290 71.8;" xml:space="preserve">
<g>
	<g>
		<path d="M28.1,0.8c0.8-0.2,1.6-0.3,2.4-0.4l3.7,21.2c-0.8,0.1-1.6,0.2-2.4,0.4L28.1,0.8z M27.2,24.2c0.8-0.6,1.6-1,2.5-1.4L19,4.1
			c-0.8,0.5-1.7,0.9-2.5,1.4L27.2,24.2z M21.1,35.9c0-0.8,0.1-1.6,0.2-2.3H0.1C0,34.3,0,35,0,35.8c0,0.7,0,1.4,0.1,2.1h21.2
			C21.2,37.2,21.1,36.6,21.1,35.9 M49.9,35.9c0,8-6.4,14.4-14.4,14.4c-7.1,0-13-5.2-14.2-12l-20,7.3c0.4,1.6,1,3.1,1.6,4.5l19.8-7.3
			L6.6,56.6c1,1.4,2.2,2.8,3.4,4.1l15.1-12.8l-9.9,17.3c1.6,1.1,3.2,2.1,5,2.9l9.3-16.3l-3.2,18.5c2,0.5,4,0.9,6.1,1.1l3-17.3
			l3,17.3c2.2-0.2,4.3-0.6,6.4-1.1l-2.8-16l8.1,14.1c2.2-1,4.3-2.2,6.3-3.7l-7.4-13l11.4,9.6c1.8-1.8,3.4-3.8,4.8-5.9l-10.2-8.6
			l12.4,4.6c1.2-2.4,2-4.9,2.6-7.6l-10.9-4l11.6,0c0.1-1.3,0.2-2.7,0.2-4.1c0-1.6-0.1-3.2-0.3-4.7H49.1
			C49.6,32.6,49.9,34.2,49.9,35.9 M21.5,32.6c0.3-1.3,0.8-2.5,1.4-3.6l-20-7.3c-0.5,1.2-0.9,2.4-1.3,3.6L21.5,32.6z M62.3,12.3
			L46,26c0.4,0.4,0.8,0.9,1.1,1.3l16.3-13.7C63.1,13.2,62.7,12.7,62.3,12.3 M54.2,5.4c-0.6-0.4-1.2-0.7-1.7-1L41.8,22.9
			c0.6,0.3,1.2,0.6,1.8,1L54.2,5.4z M25.8,25.3L9.4,11.5c-0.8,0.8-1.5,1.7-2.2,2.6l16.3,13.8C24.2,26.9,24.9,26.1,25.8,25.3
			 M37,21.6c0.7,0.1,1.4,0.2,2.1,0.4l3.7-21.2c-0.7-0.1-1.4-0.3-2.1-0.4L37,21.6z"/>
		<g>
			<path d="M87.6,54.3V17.5H101c4.5,0,8,1.1,10.6,3.3c2.5,2.2,3.8,5.3,3.8,9.2c0,2.1-0.5,4-1.5,5.7c-1,1.7-2.3,3.1-3.9,4.2l9,14.4
				h-10.7l-6.4-11.8h-4.9v11.8H87.6z M99.6,24.6h-2.8v10.7h2.7c4.2,0,6.3-1.8,6.3-5.4C105.9,26.4,103.8,24.6,99.6,24.6z"/>
			<path d="M127.5,54.3V25.4h-11.3v-7.9h32.4v7.9h-11.3v28.9H127.5z"/>
			<path d="M148.8,54.3l12.8-19.1l-11.9-17.6h11.5l6.5,11.3l6.4-11.3h11.1l-12,18l12.7,18.7h-11.5l-7.4-12.5l-7,12.5H148.8z"/>
		</g>
	</g>
</g>
</svg>
