<svg xmlns="http://www.w3.org/2000/svg" xml:space="preserve" class="brand-logo" viewBox="0 0 486.8 200">
  <linearGradient id="a" x1="-366.82" x2="-559.98" y1="202.18" y2="202.18" gradientTransform="rotate(180 -170.44 158.34)" gradientUnits="userSpaceOnUse">
    <stop offset="0" stop-color="#ca0123"/>
    <stop offset=".15" stop-color="#c10123"/>
    <stop offset=".4" stop-color="#a90224"/>
    <stop offset=".71" stop-color="#810326"/>
    <stop offset=".97" stop-color="#5b0428"/>
  </linearGradient>
  <path fill="url(#a)" d="M95.5 175c43.5 0 74.5-35 74.5-75s-31.5-70-70-70c-4 0-9 .5-11.5 1 4.5-1.5 12-2 16-2 51 0 81.5 41 81.5 85 0 51.5-38.5 86-86 86C45 200 0 155 0 100c0-19.5 6-45 26.5-67.5-13 18-16.5 36-16.5 54C10 133 41.5 175 95.5 175z"/>
  <linearGradient id="b" x1="157.86" x2="16.13" y1="248.24" y2="367.16" gradientTransform="translate(0 -196)" gradientUnits="userSpaceOnUse">
    <stop offset="0" stop-color="#ca0123"/>
    <stop offset=".15" stop-color="#c10123"/>
    <stop offset=".4" stop-color="#a90224"/>
    <stop offset=".71" stop-color="#810326"/>
    <stop offset=".97" stop-color="#5b0428"/>
  </linearGradient>
  <path fill="url(#b)" d="M104.5 25C61 25 30 60 30 100s31.5 70 70 70c4 0 9-.5 11.5-1-4.5 1.5-12 2-16 2-51 0-81.5-41-81.5-85 0-51.5 38.5-86 86-86 55 0 100 45 100 100 0 19.5-6 45-26.5 67.5 13-18 16.5-36 16.5-54C190 67 158.5 25 104.5 25z"/>
  <path fill="#ca0123" d="M245.1 124.8c-10 0-15.5-6-16-15.5h9.5c0 5 2.5 7.5 6 7.5 2.5 0 5-1 5-4.5s-2.5-5.5-7-8l-3.5-2c-5-2.5-9-6-9-13 0-9 6.5-13.5 15-13.5 9 0 14.5 5.5 14.5 14.5h-9.5c-.5-5-2-7.5-5.5-7.5-3 0-4.5 2-4.5 4.5 0 3.5 3 5.5 6.5 7.5l3 2c3.5 2 10 5.5 10 14.5.5 9.5-7 13.5-14.5 13.5zm34-.5c8.5 0 15.5-6 15.5-18s-7-18-15.5-18-15.5 6.5-15.5 18c0 12.1 7 18.5 15.5 18zm0-7.9c-3.5 0-6-3.5-6-10s2.5-10 6-10 6 3.5 6 10-2 10-6 10zm20.5 7.9h9.5V74.9h-9.5v49.4zm44.4-.5v-34h-9.5v21c0 4-2 6-5 6s-5-2-5-6V89.3H315v23.5c0 7.5 4 12 10.5 12 4.5 0 7-2 8.5-4.5h.5l1 3.5h8.5zm38.5-38.9c3 0 5.5-2.5 5.5-5.5s-2.5-5.5-5.5-5.5c-3.5 0-6 2.5-6 5.5s3 5.5 6 5.5zm-5 38.9h9.5V89.3h-9.5v34.5zm30.4.5c8.5 0 15.5-6 15.5-18s-7-18-15.5-18-15.5 6.5-15.5 18c0 12.1 7 18 15.5 18zm0-7.9c-3.5 0-6-3.5-6-10s2.5-10 6-10 6 3.5 6 10-2.5 10-6 10zm66.4 7.4c6.5 0 12.5-3 12.5-10s-5-9.5-9.5-11l-2.5-1c-2.5-1-4.5-2-4.5-4s1-3 3-3c2.5 0 4 1.5 4 4h9c0-6-4.5-10.5-12.5-10.5-7 0-12.5 3.5-12.5 10.5 0 6.5 5 8.5 9 10l2.5 1c3 1 5 2 5 4.5 0 2-1.5 3-3.5 3-2.5 0-4-1-4.5-4.5h-9c.6 7.5 5 11.5 13.5 11zm-109.8.5c2 0 4.5 0 6-.5v-7c-1 .5-2 .5-3 .5-3 0-4-2-4-4V96.8h8.5v-7.5h-8.5v-9H355v4c0 3.5-1.5 5-5 5h-1.5v7.5h6v18c0 5.5 3 10 10 9.5zm63.4-34.9v34.5h9.5v-21c0-4.5 2-6.5 5-6.5s5 2 5 6v21.5h9.5v-23.5c0-7.5-4-12-10.5-12-4.5 0-7 2-8.5 4.5h-.5l-1-3.5h-8.5zM56.6 52.5v50.1c0 14.2 8 20.8 21.8 20.8 16.6 0 21.8-9 21.8-20.8V52.5H84v51.8c0 2.9-1.3 6.6-5.5 6.6-4.6 0-5.6-2.9-5.6-6.2V52.5H56.6m50 94.3V77.5h16.2v55.4h19.8v13.9h-36"/>
</svg>
